<svg xmlns="http://www.w3.org/2000/svg" viewBox="0 0 43 62"><defs><linearGradient id="g1" x1="14.15" y1="-2.3" x2="25.59" y2="-32.25" gradientTransform="matrix(1 0 0 -1 0 16)"><stop offset="0" stop-color="#0B53CE"/><stop offset="1" stop-color="#7252AA"/></linearGradient><linearGradient id="g2" x1="27.05" y1="-57.67" x2="27.05" y2="-22" gradientTransform="matrix(1 0 0 -1 0 16)"><stop offset="0" stop-color="#2266E3"/><stop offset="1" stop-color="#AE7FE2"/></linearGradient></defs><path fill="url(#g1)" d="M0,-1 L43.02,14.36 L43.02,35.46 C43.02,37.16 41.34,38.35 39.74,37.78 L30.73,34.56 L30.73,22.62 C30.73,20.06 29.14,17.77 26.75,16.87 L22.56,15.3 C21.76,15 20.9,15.59 20.9,16.45 L20.9,31.06 L0,23.6 L0,-1"/><path fill="url(#g2)" d="M43.02,18.67 C43.02,21.25 41.41,23.56 38.98,24.45 L11.06,34.65 L11.06,59.23 L43.02,47.55 L43.02,18.67"/><path opacity="0.5" fill="#B0ADFF" d="M30.73,27.47 L20.89,31.07 L20.89,45.49 C20.89,46.35 21.75,46.94 22.55,46.64 L26.75,45.06 C29.15,44.16 30.73,41.87 30.73,39.31 L30.73,27.47"/></svg>