<svg xmlns="http://www.w3.org/2000/svg" height="800" width="1200" version="1.0" viewBox="-26.362245 -9.9701 228.47279 59.8206"><g fill-rule="evenodd"><path d="M28.8963 10.3974s-6.701-5.169-12.253-2.105c-5.552 3.064-.574 12.253-.574 12.253s4.403 8.616 13.594 12.062c5.744 1.916 8.041-.189 8.042 0 0 0-1.149 2.107-4.596 2.107s-9.19-2.107-15.125-7.852c-4.212-4.211-6.51-9.188-6.51-9.188s1.915 6.509 7.275 11.679c7.467 7.084 13.211 7.658 13.211 7.658s-8.042.957-17.423-9.189c-2.49-2.873-5.936-8.999-5.936-8.999s.958 4.021 3.638 7.659c4.02 5.742 8.041 8.424 8.041 8.424s-9.382-4.211-16.465-15.316c-6.701-10.34-3.446-17.425 1.149-18.957 4.212-1.34 8.616-.574 14.168 2.489 5.935 3.254 9.764 7.275 9.764 7.275zm16.084-2.68c1.532-.383 3.638-.574 6.127-.574 3.254 0 5.552.766 6.892 2.105 1.532 1.149 2.298 2.873 2.298 5.17 0 2.105-.766 4.021-1.915 5.169-1.723 1.915-4.404 2.681-7.659 2.681-.957 0-1.723 0-2.489-.191v9.955h-3.254V7.7174zm3.255 11.87c.766.191 1.532.191 2.68.191 3.83 0 6.127-1.915 6.127-5.169 0-3.446-2.297-4.979-5.744-4.979-1.532 0-2.489.191-3.063.384v9.573zm14.743 4.021c.191 4.404 2.872 6.318 6.126 6.318 2.298 0 3.638-.574 4.787-.957l.575 2.297c-.958.383-3.063 1.148-5.936 1.148-5.361 0-8.616-3.637-8.616-8.996 0-5.362 3.255-9.574 8.424-9.574 5.744 0 7.275 5.169 7.275 8.424 0 .574-.192 1.15-.192 1.531l-12.443-.191zm9.381-2.297c.191-1.915-.766-5.17-4.403-5.17-3.255 0-4.595 3.063-4.978 5.17h9.381zm5.553-1.532c0-2.105-.192-3.829-.192-5.552h2.872v3.83h.191c.766-2.298 2.681-3.83 4.978-3.83h.766v3.064h-1.148c-2.298 0-3.829 1.723-4.212 4.021-.191.383-.191.957-.191 1.531v9.189h-3.256l.192-12.253zm12.062 3.829c0 4.404 2.681 6.318 5.935 6.318 2.298 0 3.83-.574 4.979-.957l.574 2.297c-1.148.383-3.063 1.148-5.936 1.148-5.36 0-8.807-3.637-8.807-8.996 0-5.362 3.255-9.574 8.424-9.574 5.744 0 7.275 5.169 7.275 8.424v1.531l-12.444-.191zm9.381-2.297c0-1.915-.958-5.17-4.404-5.17-3.255 0-4.786 3.063-4.978 5.17h9.382zm21.061 8.041c0 4.213-.766 6.51-2.489 8.232-1.724 1.531-4.212 2.107-6.51 2.107-2.105 0-4.403-.576-5.936-1.533l.767-2.488c1.34.766 3.063 1.531 5.36 1.531 3.255 0 5.553-1.723 5.553-6.318v-1.914c-.958 1.725-2.872 2.871-5.553 2.871-4.403 0-7.658-3.637-7.658-8.615 0-5.935 4.021-9.381 8.041-9.381 3.063 0 4.787 1.531 5.553 3.063l.191-2.68h2.872c-.191 1.34-.191 2.68-.191 4.978v10.147zm-3.255-8.041c0-.574 0-1.15-.191-1.532-.574-1.915-2.106-3.446-4.404-3.446-3.063 0-5.36 2.681-5.36 6.701 0 3.447 1.914 6.51 5.36 6.51 1.915 0 3.638-1.34 4.404-3.447.191-.383.191-1.148.191-1.721v-3.065zm6.318-1.532c0-2.105 0-3.829-.191-5.552h2.872l.19 3.83c.767-2.298 2.872-3.83 4.979-3.83h.957v3.064h-1.148c-2.298 0-4.021 1.723-4.403 4.021 0 .383-.191.957-.191 1.531v9.189h-3.063v-12.253zm12.253-8.807c-1.148 0-1.914-.957-1.914-2.106 0-1.148.766-1.915 1.914-1.915 1.341 0 2.106.766 2.106 1.915.001 1.149-.765 2.106-2.106 2.106zm-1.531 3.255h3.255v17.805h-3.255v-17.805zm6.319 4.786c0-1.723-.191-3.255-.191-4.787h2.871l.192 2.873c.957-1.532 2.871-3.255 5.935-3.255 2.489 0 6.127 1.531 6.127 7.658v10.529h-3.063v-10.337c0-2.681-1.148-5.17-4.212-5.17-2.106 0-3.638 1.533-4.212 3.255-.191.382-.191.958-.191 1.532v10.721h-3.255v-13.019zm19.528 4.595c0 4.404 2.872 6.318 6.127 6.318 2.298 0 3.638-.574 4.787-.957l.574 2.297c-1.148.383-3.063 1.148-5.936 1.148-5.36 0-8.615-3.637-8.615-8.996 0-5.362 3.063-9.574 8.232-9.574 5.936 0 7.275 5.169 7.275 8.424v1.531l-12.444-.191zm9.382-2.297c0-1.915-.766-5.17-4.403-5.17-3.255 0-4.596 3.063-4.979 5.17h9.382z" fill="#0c5396"/><path d="M22.1953 26.0964s4.213 2.682 7.467.766c3.255-1.723.383-7.465.383-7.465s-2.681-5.17-8.233-7.084c-3.255-1.341-4.978-.767-4.978-.767s.766-.958 2.68-.766c2.297.191 5.936 1.34 9.382 4.786 2.489 2.489 3.829 5.553 3.829 5.553s-1.149-3.831-4.213-7.084c-4.594-4.213-7.849-4.595-7.849-4.595s4.786 0 10.147 5.552c1.724 1.723 3.638 5.553 3.638 5.553s-.574-2.489-2.105-4.787c-2.489-3.446-4.786-5.169-4.786-5.169s5.552 2.68 9.764 9.381c3.829 6.317 1.915 10.724-.766 11.679-2.489.768-5.36.574-8.616-1.34-3.446-1.914-5.744-4.213-5.744-4.213z" fill="#fbaa39"/><path d="M123.2883 38.9264c.383.189.766.189 1.34.189.766 0 1.148-.383 1.148-.766 0-.574-.383-.957-.957-1.148-.957-.383-1.531-.766-1.531-1.531 0-.957.766-1.531 1.723-1.531.574 0 .957.191 1.34.383l-.19.574c-.192-.191-.575-.383-1.149-.383-.766 0-.957.574-.957.766 0 .574.383.766.957 1.148.957.383 1.532.766 1.532 1.531 0 .957-.767 1.533-1.915 1.533-.574 0-1.148 0-1.34-.193v-.572zm8.615.766v-2.299l-1.723-3.063h.766l.766 1.34c.191.574.383.766.574 1.148.191-.383.383-.574.574-1.148l.767-1.34h.766l-1.724 3.063v2.299h-.766zm6.127-.766c.383.189.766.189 1.34.189.766 0 1.149-.383 1.149-.766 0-.574-.384-.957-1.149-1.148-.766-.383-1.34-.766-1.34-1.531 0-.957.766-1.531 1.724-1.531.574 0 .957.191 1.148.383l-.191.574c-.191-.191-.383-.383-.957-.383-.767 0-.958.574-.958.766 0 .574.191.766.958 1.148.957.383 1.34.766 1.34 1.531 0 .957-.574 1.533-1.724 1.533-.574 0-1.148 0-1.531-.193l.191-.572zm6.701-4.595h4.021v.574h-1.531v4.787h-.766v-4.787h-1.724zm8.616 4.785h2.298v.576h-3.064v-5.361h3.064v.574h-2.298v1.722h2.106v.575h-2.106zm11.488-1.723v-2.488c-.191.766-.574 1.34-.766 2.105l-.958 2.682h-.574l-.766-2.682c-.383-.766-.574-1.34-.766-2.105v2.488l-.191 2.299h-.767l.383-5.361h.958l.957 2.488c.191.766.383 1.34.574 1.914.191-.574.383-1.148.574-1.914l.958-2.488h.957l.191 5.361h-.574l-.19-2.299zm4.595 1.533c.383.189.766.189 1.341.189.574 0 1.148-.383 1.148-.766 0-.574-.383-.957-1.148-1.148-.767-.383-1.341-.766-1.341-1.531 0-.957.574-1.531 1.724-1.531.574 0 .957.191 1.148.383l-.191.574c-.191-.191-.574-.383-.957-.383-.766 0-1.149.574-1.149.766 0 .574.384.766 1.149 1.148.957.383 1.34.766 1.34 1.531 0 .957-.574 1.533-1.915 1.533-.383 0-.957 0-1.34-.193l.191-.572zm4.978 0h.191c.191 0 .191 0 .191.189.191 0 .191.191.191.191h.191l-.191-.191c0-.189 0-.383-.191-.383.191 0 .383-.191.383-.191 0-.191-.191-.191-.191-.383h-.766v1.148h.191v-.38h.001zm.192-1.342c-.574 0-.958.574-.958 1.148s.384 1.148.958 1.148 1.148-.574 1.148-1.148-.574-1.148-1.148-1.148zm0 .192c.574 0 .957.383.957.957s-.383.959-.957.959c-.383 0-.766-.385-.766-.959s.383-.957.766-.957zm-.192.574h.191c.191 0 .383 0 .383.191 0 0-.191.191-.383.191h-.191v-.382z" fill="#0c5396"/></g></svg>