<svg version="1.1" id="Layer_1" xmlns="http://www.w3.org/2000/svg" xmlns:xlink="http://www.w3.org/1999/xlink" x="0px" y="0px"
	 width="100%" viewBox="0 0 992 992" enable-background="new 0 0 992 992" xml:space="preserve">
<path fill="#000000" opacity="1.000000" stroke="none" 
	d="
M651.487549,341.435852 
	C662.197266,335.039825 672.597656,328.837646 683.472168,322.352753 
	C688.963135,331.437805 694.152039,339.938232 699.258484,348.487854 
	C713.694031,372.657013 728.008484,396.899170 742.596741,420.975555 
	C745.021790,424.977783 744.529053,426.756622 740.437439,428.989960 
	C699.647522,451.254730 658.957153,473.701782 618.247314,496.113159 
	C615.805542,497.457428 613.219177,498.608734 611.156921,500.696594 
	C612.367615,502.573273 614.311646,503.240448 616.021851,504.167267 
	C657.319153,526.548340 698.602112,548.956360 739.982361,571.183228 
	C744.084106,573.386353 745.147766,575.068848 742.516724,579.420898 
	C723.903137,610.210571 705.545166,641.154785 687.081848,672.035461 
	C683.561096,677.924072 683.441711,678.014282 677.293579,674.388428 
	C637.692749,651.033813 598.134766,627.606445 558.530212,604.258240 
	C554.991333,602.171997 551.686218,599.513611 547.191956,598.666809 
	C545.572998,602.416504 546.221497,606.278809 546.452454,609.939697 
	C547.407837,625.083191 547.126160,640.239746 547.356262,655.391113 
	C547.730591,680.040771 548.603943,704.682556 548.387939,729.342041 
	C548.351685,733.487305 548.762390,737.648438 549.168945,741.782410 
	C549.641968,746.591370 547.583740,748.174927 542.843994,748.147339 
	C516.681946,747.994812 490.518463,748.078064 464.355469,748.077515 
	C454.690155,748.077332 445.021881,747.926575 435.360901,748.128967 
	C430.964661,748.221069 429.564484,746.523315 429.692383,742.219849 
	C431.048676,696.589172 430.450531,650.936584 431.101349,605.296997 
	C431.115601,604.297607 431.158447,603.292175 431.075195,602.299011 
	C430.727203,598.146301 429.243713,597.205872 425.596130,599.306885 
	C416.935913,604.295471 408.379272,609.464905 399.807404,614.605591 
	C366.379456,634.653076 332.911133,654.634216 299.601379,674.876221 
	C295.165039,677.572144 293.355103,676.851013 290.852692,672.517517 
	C272.942902,641.502686 254.839417,610.598633 236.584412,579.785583 
	C234.044998,575.499268 234.326096,573.603149 238.945816,571.131470 
	C279.484161,549.442261 319.876892,527.480957 360.313904,505.602325 
	C362.491638,504.424072 364.745911,503.357635 366.365784,501.583954 
	C366.213776,498.617981 363.945892,497.931335 362.108887,496.919342 
	C321.256958,474.414764 280.399384,451.920441 239.528183,429.450867 
	C233.339310,426.048431 233.341507,426.130646 236.755646,420.308716 
	C254.957108,389.270813 273.201752,358.257782 291.246368,327.128876 
	C293.430328,323.361267 295.108704,322.754456 298.920166,325.056122 
	C340.132507,349.943939 381.440796,374.672882 422.734680,399.425476 
	C424.988220,400.776306 427.102692,402.468018 430.172150,402.947144 
	C432.294922,397.475983 431.476501,391.866791 431.265320,386.311951 
	C430.397827,363.496918 430.881226,340.669922 430.644653,317.849487 
	C430.440918,298.196747 430.241821,278.542145 429.755280,258.895447 
	C429.635651,254.063843 431.195465,252.577911 435.998779,252.599503 
	C471.659698,252.759811 507.321960,252.751709 542.982971,252.600922 
	C547.519775,252.581741 549.340149,253.894791 548.999023,258.562988 
	C547.578430,278.005768 548.598145,297.504974 547.689697,316.979736 
	C546.883545,334.263947 547.391418,351.606934 547.173279,368.922119 
	C547.053650,378.410278 546.550598,387.893158 546.376038,397.381287 
	C546.264709,403.430176 547.232300,403.955750 552.600403,400.743011 
	C585.476562,381.066742 618.322388,361.339722 651.487549,341.435852 
z"/>
</svg>